<?xml version="1.0" encoding="utf-8"?>
<!-- Generator: Adobe Illustrator 23.1.0, SVG Export Plug-In . SVG Version: 6.00 Build 0)  -->
<svg version="1.1" id="Layer_1" xmlns="http://www.w3.org/2000/svg" xmlns:xlink="http://www.w3.org/1999/xlink" x="0px" y="0px"
	 viewBox="0 0 986 979" style="enable-background:new 0 0 986 979;" xml:space="preserve">
<style type="text/css">
	.st0{fill:#FF9100;}
	.st1{fill:none;}
	.st2{fill:url(#SVGID_1_);}
	.st3{fill:#6300FF;}
	.st4{fill:none;stroke:#FF29FA;stroke-width:17;stroke-miterlimit:10;}
	.st5{fill:none;stroke:#FF9100;stroke-width:30;stroke-miterlimit:10;}
	.st6{fill:none;stroke:#FF29FA;stroke-width:8.8514;stroke-miterlimit:10;}
	.st7{fill:#FFFFFF;}
	.st8{fill:none;stroke:#FFFFFF;stroke-width:4.4816;stroke-linecap:round;stroke-miterlimit:10;}
	.st9{fill:#FFFFFF;stroke:#000000;stroke-width:3.616;stroke-linecap:round;stroke-miterlimit:10;}
	.st10{fill:none;stroke:#000000;stroke-width:4.1303;stroke-linecap:round;stroke-miterlimit:10;}
	.st11{fill:none;stroke:#000000;stroke-width:3.616;stroke-linecap:round;stroke-miterlimit:10;}
	.st12{fill:none;stroke:#6300FF;stroke-width:3;stroke-linecap:round;stroke-miterlimit:10;}
	.st13{fill:none;stroke:#FF9100;stroke-width:6.7817;stroke-linecap:round;stroke-miterlimit:10;}
	.st14{fill:none;stroke:#FF29FA;stroke-width:6.7817;stroke-linecap:round;stroke-miterlimit:10;}
	.st15{fill:none;stroke:#FF9100;stroke-width:5.692;stroke-linecap:round;stroke-miterlimit:10;}
	.st16{fill:none;stroke:#C6C6C6;stroke-width:6.7817;stroke-linecap:round;stroke-miterlimit:10;}
	.st17{fill:none;stroke:#FF29FA;stroke-width:5.476;stroke-linecap:round;stroke-miterlimit:10;}
	.st18{display:none;}
</style>
<g id="Layer_3">
	<rect x="4.33" y="0.33" class="st0" width="984.56" height="977.86"/>
	<g id="Layer_5">
	</g>
	<g>
		<path d="M832.4,925.03H110.76c-16.44,0-29.77-13.33-29.77-29.77V140.94c0-16.44,13.33-29.77,29.77-29.77H832.4
			c16.44,0,29.77,13.33,29.77,29.77v754.32C862.17,911.7,848.84,925.03,832.4,925.03z"/>
		<g>
			<path class="st1" d="M198.49,931.4c-5.46,0.03-10.92,0.1-16.39,0.2h40.84C214.86,931.44,206.71,931.36,198.49,931.4z"/>
			
				<linearGradient id="SVGID_1_" gradientUnits="userSpaceOnUse" x1="-17.265" y1="-217.0525" x2="657.0692" y2="1002.7798" gradientTransform="matrix(1 0 0 -1 0 980)">
				<stop  offset="0.3855" style="stop-color:#FFFFFF"/>
				<stop  offset="0.4462" style="stop-color:#FAFAFA"/>
				<stop  offset="0.5223" style="stop-color:#EAEAEA"/>
				<stop  offset="0.6067" style="stop-color:#D0D0D0"/>
				<stop  offset="0.6971" style="stop-color:#ADADAD"/>
				<stop  offset="0.7924" style="stop-color:#7F7F7F"/>
				<stop  offset="0.8916" style="stop-color:#464646"/>
				<stop  offset="0.9925" style="stop-color:#050505"/>
				<stop  offset="1" style="stop-color:#000000"/>
			</linearGradient>
			<path class="st2" d="M852.04,490.27c54.79-95.78,90.63-199.99,98.24-306.25c0.16-2.17,0.9-7.48-1.11-9.19
				c-2.57-2.18-3.77,4.16-3.97,5.61c-0.23,1.69-0.46,3.38-0.7,5.07c-0.15,1.13-0.03,3.14-1.33,1.65c-1.64-1.9-1.12-6.52-0.98-8.8
				c0.18-3.08,0.63-6.13,0.99-9.19c0.18-1.46,0.34-2.93,0.43-4.4c0.07-1.12,0.12-2.87-0.79-3.7c-0.38-0.35-0.78-0.67-1.23-0.93
				c-0.81-0.47-1.76-0.63-2.52,0.03c-0.83,0.73-1.19,1.95-1.44,2.99c-0.39,1.58-0.56,3.21-0.69,4.83c-0.14,1.85-0.2,3.7-0.25,5.55
				c-0.05,2.22,0.4,4.35-0.75,6.35c-0.14,0.25-0.3,0.49-0.54,0.65c-1.3,0.88-1.63-2.86-1.75-3.61c-0.2-1.21-0.32-2.43-0.49-3.65
				c-0.43-3.17-0.6-6.4-0.38-9.6c0.1-1.5,0.62-6.33-1.06-7.08c-5.2-2.3-5.6,3.29-5.41,7.06c0.19,3.8,0.84,7.57,1.15,11.36
				c0.13,1.57,0.25,3.18,0.07,4.75c-0.07,0.64-0.78,4.03-1.93,2.7c-0.67-0.77-0.39-2.29-0.43-3.24c-0.05-1.45-0.12-2.9-0.19-4.35
				c-0.14-2.9-0.29-5.8-0.47-8.69c-0.1-1.73,0.42-7.72-2.53-7.85c-3.88-0.17-3.08,8.34-3.09,10.72c-0.02,4.89-0.33,9.8-1.11,14.62
				c-0.84,5.19-2.63,15.36-9.02,16.73c-8.66,1.86-10.89-6.27-13.02-12.76c-0.4-1.22-0.81-2.54-1.55-3.6
				c-0.62-0.9-2.63-2.64-3.56-1.38c-0.25,0.34-0.29,0.78-0.32,1.19c-0.1,1.88,0.46,3.66,0.45,5.49c0,1.31-0.47,2.75-0.66,4.05
				c-0.42,2.98-0.96,5.94-1.64,8.87c-1.24,5.32-2.94,10.54-5.18,15.52c-3.79,8.43-9.18,16.21-16.19,22.28
				c-5.91,5.12-12.96,8.98-20.58,10.83c-6.86,1.66-14.14,1.66-20.93-0.34c-5.21-1.54-10.04-4.24-14.04-7.91
				c-12.92-11.31-15.22-28.67-18.46-44.56c-5.08-20.54-11.22-40.53-20.6-59.9C707.97,30.03,622.44,31.13,594.25,21.1
				c-81.46-12.01-156.96,22.69-219.79,79.95c-19.1,16.22-38.32,45.35-56.25,61.46c-61.38,43.59-196.76-5.96-139.49-58.35
				c3.12-1.99,2-5.96-1.64-5.95c-0.62,0-2.64,2.56-3.17,3.05c-1.01,0.93-2.04,1.84-3.1,2.72c-1.69,1.4-3.44,2.74-5.32,3.86
				c-2.29,1.37-5.26,2.85-8.01,2.1c-3.67-1.01-4.76-5.57-5.27-8.82c-1.09-7-0.56-14.76,1.96-21.41c0.74-1.95,1.67-3.82,2.05-5.88
				c0.18-0.96,0.56-4.51-0.6-5.1c-2.15-1.09-3.22,0.02-4.15,1.96c-0.68,1.41-1.34,2.9-1.77,4.41c-0.84,2.94-1.78,5.84-2.88,8.71
				c-0.5,1.31-0.98,3.09-1.67,4.25c-0.44,0.75-0.78,0.92-1.18,0.29c-0.57-0.89,0.31-3.55,0.57-4.52c0.89-3.32,2.28-6.61,2.83-10.01
				c0.46-2.86,1.81-5.59,1.28-8.57c-0.36-2-2.12-1.81-3.45-0.6c-0.84,0.76-1.67,1.8-2.08,2.86c-1,2.57-1.53,5.33-2.09,8.02
				c-0.57,2.75-1.08,5.55-1.98,8.22c-0.21,0.62-2.19,5.92-3.16,2.93c-0.11-0.35-0.11-0.74-0.09-1.11c0.12-3.61,0.77-7.01,1.36-10.52
				c0.33-1.93,2.16-10.43-1.77-10.17c-4.57,0.3-4.43,7.45-4.73,10.61c-0.53,5.57-1.17,10.97-3.37,16.18
				c-0.05,0.12-0.11,0.25-0.21,0.33c-0.2,0.15-0.52,0.06-0.67-0.15c-0.15-0.2-0.18-0.48-0.17-0.73c0.12-3.45,0.78-6.93,1.43-10.33
				c0.72-3.75-5.26-4.43-5.98-0.7c-9.9,51.34-24.93,99.1-42.83,145.41v673.4c0,18.08,14.66,32.74,32.74,32.74h74.95
				c5.47-0.1,10.93-0.17,16.39-0.2c8.22-0.04,16.37,0.04,24.46,0.2c70.58,0,133.06-11.83,197.39-42.66
				C592.5,808.58,753.13,663.17,852.04,490.27z"/>
		</g>
		<g>
			<polygon class="st3" points="-18.19,276.59 -82.48,240.53 -36.02,188.63 28.27,224.69 			"/>
			<polygon class="st3" points="26.1,334.99 -38.19,298.93 8.27,247.03 72.56,283.09 			"/>
			<polygon class="st3" points="73.05,386.64 8.76,350.58 55.22,298.68 119.51,334.74 			"/>
			<polygon class="st3" points="121.88,439.97 57.59,403.91 104.05,352.01 168.34,388.07 			"/>
			<polygon class="st3" points="170.71,493.3 106.42,457.24 152.88,405.34 217.17,441.4 			"/>
			<polygon class="st3" points="219.54,546.63 155.25,510.57 201.71,458.67 266,494.73 			"/>
			<polygon class="st3" points="268.37,599.96 204.08,563.91 250.54,512 314.83,548.06 			"/>
			<polygon class="st3" points="317.2,653.29 252.91,617.24 299.37,565.33 363.66,601.39 			"/>
			<polygon class="st3" points="366.03,706.62 301.74,670.57 348.2,618.66 412.49,654.72 			"/>
			<polygon class="st3" points="414.86,759.96 350.57,723.9 397.03,671.99 461.32,708.05 			"/>
		</g>
		<g>
			<polygon class="st3" points="56.18,747.54 -23.91,778.45 -13.47,621.53 66.61,590.63 			"/>
			<polygon class="st3" points="131.77,784.18 51.69,815.09 62.12,658.18 142.2,627.27 			"/>
			<polygon class="st3" points="205.66,805.32 125.57,836.22 136.01,679.31 216.09,648.4 			"/>
			<polygon class="st3" points="282.27,826.63 202.19,857.54 212.62,700.62 292.7,669.72 			"/>
			<polygon class="st3" points="358.88,847.94 278.8,878.85 289.23,721.94 369.32,691.03 			"/>
			<polygon class="st3" points="435.5,869.26 355.41,900.16 365.84,743.25 445.93,712.34 			"/>
			<polygon class="st3" points="512.11,890.57 432.02,921.48 442.46,764.56 522.54,733.66 			"/>
			<polygon class="st3" points="588.72,911.88 508.64,942.79 519.07,785.88 599.15,754.97 			"/>
			<polygon class="st3" points="665.33,933.2 585.25,964.1 595.68,807.19 675.77,776.28 			"/>
			<polygon class="st3" points="741.95,954.51 661.86,985.42 672.29,828.5 752.38,797.6 			"/>
		</g>
		<g>
			<polygon class="st3" points="17.11,518.02 -50.95,494.09 -41.84,473.17 26.22,497.1 			"/>
			<polygon class="st3" points="82.14,548.91 14.08,524.98 23.19,504.06 91.25,527.99 			"/>
			<polygon class="st3" points="147.16,579.8 79.1,555.87 88.22,534.95 156.28,558.89 			"/>
			<polygon class="st3" points="212.19,610.69 144.13,586.76 153.24,565.85 221.3,589.78 			"/>
			<polygon class="st3" points="277.21,641.59 209.16,617.65 218.27,596.74 286.33,620.67 			"/>
			<polygon class="st3" points="342.24,672.48 274.18,648.55 283.29,627.63 351.35,651.56 			"/>
			<polygon class="st3" points="407.27,703.37 339.21,679.44 348.32,658.52 416.38,682.45 			"/>
		</g>
		<line class="st4" x1="-72.96" y1="684.65" x2="345.96" y2="690.35"/>
		<line class="st5" x1="95.25" y1="616.02" x2="495.75" y2="738.98"/>
		<line class="st6" x1="228.06" y1="417.1" x2="396.59" y2="593.13"/>
		<ellipse transform="matrix(0.5 -0.866 0.866 0.5 73.0682 753.1536)" class="st7" cx="688.79" cy="313.3" rx="20.63" ry="11.17"/>
		
			<ellipse transform="matrix(0.4248 -0.9053 0.9053 0.4248 39.7768 600.5891)" class="st7" cx="492.51" cy="268.99" rx="21.32" ry="12.2"/>
		<path class="st8" d="M509.5,212.98c-0.19-3.99-3.95-7.11-7.89-7.77c-3.94-0.65-7.94,0.63-11.57,2.28
			c-7.45,3.37-14.34,8.52-18.33,15.66"/>
		<path class="st8" d="M688.51,272.66c0.81,2.38,1.63,4.77,2.44,7.15c0.4,1.16,0.89,2.44,2,2.98c2.15,1.05,2.08,1.13,3.21-0.98
			c13.04-7.34,27.43-12.42,42.3-14.94"/>
		<g>
			<path d="M716.66,793.17l-7.37,16.31H383.74c-5.85,0-11.61-1.44-16.77-4.18l-126.66-67.4v-9.97l7.37-6.34L716.66,793.17z"/>
			<g>
				<path d="M575.23,728.38H239.85l-48.97-183.81c-3.19-11.98,6-23.69,18.59-23.69h295.65c8.74,0,16.37,5.8,18.59,14.11
					L575.23,728.38z"/>
			</g>
			<g>
				<path d="M248.15,719.78l-48.61-182.47c-1.36-5.09-0.28-10.42,2.94-14.62c3.32-4.32,8.39-6.8,13.9-6.8h295.65
					c7.91,0,14.84,5.25,16.84,12.77l50.92,191.12L248.15,719.78L248.15,719.78z"/>
				<path class="st7" d="M512.03,517.71c7.1,0,13.3,4.7,15.09,11.42l50.31,188.84H249.54l-48.26-181.12
					c-1.21-4.54-0.25-9.3,2.63-13.05c2.98-3.87,7.52-6.09,12.47-6.09L512.03,517.71 M512.03,514.09H216.38
					c-12.59,0-21.78,11.71-18.59,23.69l48.97,183.81h335.38L530.62,528.2C528.4,519.89,520.77,514.09,512.03,514.09L512.03,514.09z"
					/>
			</g>
			<path d="M709.29,809.48H391.73c-11.02,0-21.88-2.71-31.61-7.88l-119.81-63.7h334.35L709.29,809.48z"/>
			<polygon points="716.66,793.17 382.32,793.17 247.69,721.59 582.03,721.59 			"/>
			<g>
				<g>
					<path class="st7" d="M780.06,713.35c-11.26,0-22.91-8.92-25.98-19.88c-4.45-15.91,6.75-28.11,19.04-32.71
						c18.01-6.74,35.77-13.03,52.79-18.68c8.19-2.72,16.56-5.41,24.88-8.01c7.85-2.45,14.64-4.57,21.57-4.57
						c4.89,0,9.61,1.09,14.44,3.32c7.62,3.53,13.56,13.75,13.24,22.79l-0.03,0.84c-0.59,16.33-11.89,23.43-21.27,26.5
						c-6.12,1.85-12.24,3.67-18.34,5.48c-25.11,7.47-48.84,14.52-73.21,23.65C784.93,712.92,782.53,713.35,780.06,713.35
						L780.06,713.35z"/>
					<path d="M872.36,631.3c4.69,0,9.03,1,13.68,3.15c6.9,3.19,12.49,12.85,12.19,21.08l-0.02,0.42l-0.02,0.42
						c-0.44,12.27-7.16,20.62-19.99,24.84c-6.15,1.86-12.35,3.7-18.34,5.48c-25.14,7.48-48.89,14.54-73.32,23.68
						c-2.05,0.77-4.24,1.16-6.5,1.16c-10.33,0-21.42-8.5-24.24-18.56c-4.14-14.82,6.39-26.21,17.93-30.53
						c17.98-6.73,35.72-13.01,52.73-18.66c8.17-2.71,16.53-5.4,24.85-8C859.05,633.38,865.71,631.3,872.36,631.3 M872.36,627.69
						c-7.2,0-14.16,2.17-22.1,4.65c-8.33,2.6-16.64,5.27-24.91,8.02c-17.74,5.89-35.36,12.15-52.86,18.7
						c-14.55,5.45-24.56,19.12-20.15,34.89c3.16,11.32,15.33,21.2,27.72,21.2c2.61,0,5.22-0.44,7.76-1.39
						c30.34-11.36,60.44-19.73,91.48-29.1c11.54-3.78,21.93-12,22.51-28.16c0.01-0.28,0.02-0.56,0.03-0.84
						c0.33-9.21-5.56-20.46-14.29-24.49C882.14,628.66,877.19,627.69,872.36,627.69L872.36,627.69z"/>
				</g>
			</g>
			<g>
				<path class="st9" d="M837.05,657.8c-6.52,8.01-13.57,15.61-20.62,23.23c-13.47,14.57-25.17,29.27-35.05,46.44
					c-7.68,13.34,2.72,31.72,15.84,36.98c15.98,6.41,29.9-2.2,37.6-15.58c-1.45,2.52,0.53-0.65,1.03-1.36
					c1.15-1.63,2.23-3.3,3.4-4.92c2.62-3.65,5.42-7.18,8.3-10.63c5.47-6.57,11.3-12.84,17.11-19.12
					c11.62-12.55,23.1-25.18,32.01-39.79c8.01-13.13,7.58-29.86-5.78-39.71c-7.7-5.67-19.6-6.06-29.04-2.42"/>
			</g>
			<g>
				<g>
					<path class="st7" d="M498.89,778.87c-4.38,0-7.7-2.5-8.89-6.69c-1.9-6.72-5.21-11.8-10.09-15.54
						c-2.57-1.97-9.94-6.28-15.05-6.28c-1.29,0-2.4,0.26-3.31,0.79c-1.61,0.92-3.24,1.38-4.86,1.38l0,0c-4.77,0-8.31-3.93-9.34-7.82
						c-0.52-1.97-1.14-6.89,4.34-10.02c3.48-1.98,7.65-2.99,12.4-2.99c7.43,0,16.14,2.58,23.3,6.89
						c10.49,6.33,17.88,16.19,21.38,28.54c0.82,2.89,0.4,5.55-1.22,7.69C505.66,777.32,502.34,778.87,498.89,778.87z"/>
					<path d="M464.09,733.51c7.11,0,15.48,2.48,22.36,6.63c10.09,6.08,17.2,15.59,20.57,27.48c0.67,2.36,0.36,4.41-0.92,6.11
						c-1.53,2.03-4.36,3.33-7.22,3.33c-1.69,0-5.78-0.52-7.15-5.38c-2.01-7.1-5.53-12.49-10.73-16.48
						c-1.84-1.41-9.96-6.65-16.15-6.65c-1.6,0-3.02,0.34-4.21,1.02c-1.33,0.76-2.66,1.15-3.96,1.15c-3.81,0-6.76-3.34-7.59-6.47
						c-0.52-1.94-0.75-5.57,3.49-7.99C455.79,734.43,459.66,733.51,464.09,733.51 M464.09,729.89c-4.72,0-9.31,0.95-13.3,3.23
						c-10.87,6.2-4.22,21.22,5.89,21.22c1.83,0,3.78-0.49,5.75-1.62c0.67-0.38,1.49-0.55,2.42-0.55c4.55,0,11.48,4.03,13.95,5.91
						c4.91,3.76,7.8,8.78,9.45,14.59c1.58,5.59,6.06,8.01,10.63,8.01c6.91,0,14.03-5.54,11.62-14.04
						c-3.49-12.3-11.04-22.87-22.19-29.59C481.63,733.01,472.64,729.89,464.09,729.89L464.09,729.89z"/>
				</g>
			</g>
			<g>
				<g>
					<path class="st7" d="M482.33,779.98c-2.17,0-5.15-0.84-7.04-4.82c-3.2-6.74-6.92-11.39-11.7-14.63
						c-1.84-1.25-7.56-4.48-11.84-4.48c-1.6,0-2.91,0.44-3.88,1.3c-1.93,1.72-4.11,2.6-6.46,2.6l0,0c-4.18,0-8.46-2.98-9.96-6.92
						c-0.72-1.89-1.35-5.58,2.51-9.02c5.14-4.57,11.13-6.89,17.82-6.89c16.8,0,33.62,14.3,40.17,28.13c1.51,3.19,1.33,6.54-0.5,9.44
						C489.45,777.86,485.78,779.98,482.33,779.98z"/>
					<path d="M451.77,738.93c15.87,0,32.36,14.07,38.54,27.1c1.58,3.34,0.66,6.03-0.4,7.7c-1.65,2.62-4.77,4.44-7.58,4.44
						c-2.4,0-4.22-1.27-5.41-3.79c-2.1-4.43-5.67-10.85-12.32-15.35c-0.07-0.05-7.14-4.79-12.86-4.79c-2.06,0-3.77,0.59-5.08,1.76
						c-1.59,1.42-3.36,2.14-5.26,2.14c-3.47,0-7.02-2.47-8.27-5.75c-0.68-1.78-0.88-4.44,2.03-7.03
						C439.95,741.09,445.54,738.93,451.77,738.93 M451.77,735.31c-6.65,0-13.21,2.17-19.02,7.35c-8.61,7.67-0.54,19.1,8.65,19.1
						c2.58,0,5.26-0.9,7.67-3.05c0.67-0.6,1.61-0.85,2.68-0.85c3.66,0,8.9,2.86,10.83,4.17c5.18,3.5,8.46,8.39,11.08,13.9
						c1.96,4.14,5.26,5.86,8.67,5.86c7.49,0,15.54-8.26,11.25-17.31C486.58,749.72,468.89,735.31,451.77,735.31L451.77,735.31z"/>
				</g>
			</g>
			<g>
				<g>
					<path class="st7" d="M471.53,791.85c-2.16,0-5.13-0.84-7-4.83c-8.76-18.71-27.16-30.79-46.88-30.79
						c-7.25,0-14.37,1.6-21.16,4.76c-1.48,0.69-2.98,1.04-4.47,1.04l0,0c-5.28,0-9.4-4.35-10.33-8.55c-0.84-3.82,0.86-7.02,4.68-8.8
						c9.98-4.65,20.58-7,31.49-7c27.66,0,51.92,15.11,63.31,39.43c1.5,3.2,1.3,6.56-0.55,9.47
						C478.62,789.73,474.97,791.85,471.53,791.85z"/>
					<path d="M417.87,739.48c26.96,0,50.59,14.71,61.67,38.39c1.57,3.36,0.63,6.06-0.44,7.74c-1.66,2.61-4.78,4.44-7.57,4.44
						c-2.38,0-4.19-1.27-5.36-3.79c-9.05-19.34-28.1-31.84-48.51-31.84c-7.52,0-14.89,1.66-21.92,4.93
						c-1.24,0.58-2.48,0.87-3.71,0.87c-4.37,0-7.79-3.63-8.56-7.13c-0.46-2.09-0.2-4.97,3.68-6.77
						C396.88,741.78,407.22,739.48,417.87,739.48 M417.87,735.86c-10.83,0-21.85,2.33-32.26,7.17c-11.61,5.41-4.4,20.8,6.41,20.8
						c1.68,0,3.44-0.37,5.24-1.21c6.74-3.14,13.65-4.59,20.39-4.59c19.06,0,36.75,11.62,45.24,29.75c1.94,4.15,5.23,5.87,8.64,5.87
						c7.47,0,15.53-8.27,11.29-17.33C470.63,750.29,444.83,735.86,417.87,735.86L417.87,735.86z"/>
				</g>
			</g>
			<path class="st9" d="M710.16,1006.63c-2.39-19.31-4.78-38.63-7.17-57.94c-2.17-17.53-4.38-35.24-10.44-51.84
				c-4.02-11-9.66-21.33-15.68-31.38c-15.02-25.11-31.53-47.24-52.81-66.92c-7.11-6.57-38.05-29.74-37-40.54
				c2.5-24.33,16.4-43.04,39.49-52.14c22.44-8.85,47.62-5.49,71.75-4.06c2.27,0.13,4.67,0.22,6.66-0.86
				c2.53-1.38,3.71-4.24,5.23-6.66c3.23-5.13,11.61-10.54,11.61-10.54c7.2-4.64,21.79,2.07,28.93,4.34
				c11.38,3.62,22.36,0.21,32.99,6.26C858.77,737.02,907,814.9,942.74,891.32c22.62,48.38,37.59,101.32,35.44,154.68"/>
			<g>
				<path class="st7" d="M577.8,728.15c-29.48,0-43.1-29.73-47.59-42.52c-2.69-7.66-4.85-15.64-6.94-23.36
					c-2.18-8.05-4.44-16.38-7.31-24.45c-7.13-20-9.39-37.06-7.12-53.7c2.52-18.44,11.78-33.92,26.78-44.76
					c13.83-10,31.97-15.51,51.06-15.51c3.1,0,6.24,0.15,9.34,0.44c23.29,2.18,41.46,9.51,57.18,23.08
					c11.94,10.31,21.13,24.6,28.12,43.69c3.29,9,0.99,17-1.52,22.11c-4.42,9.01-13.13,16.5-22.74,19.56
					c-2.55,0.81-5.2,1.29-7.87,1.42l-1.75,0.08l0.03,1.75c0.29,19.73-7.57,39.15-14.22,51.97c-9.22,17.78-28.03,36.98-49.27,39.79
					C581.88,728.01,579.81,728.15,577.8,728.15L577.8,728.15z"/>
				<path d="M586.67,525.66c3.04,0,6.13,0.14,9.18,0.43c22.9,2.14,40.75,9.34,56.17,22.65c11.7,10.1,20.73,24.15,27.6,42.94
					c3.07,8.4,0.91,15.89-1.45,20.7c-4.21,8.58-12.51,15.72-21.67,18.63c-2.41,0.77-4.9,1.21-7.4,1.33l-3.5,0.16l0.05,3.5
					c0.29,19.35-7.46,38.47-14.02,51.11c-9,17.36-27.31,36.1-47.91,38.83c-2.01,0.27-4,0.4-5.94,0.4
					c-10.81,0-20.47-4.16-28.71-12.37c-7.07-7.04-13.01-17.05-17.18-28.93c-2.67-7.6-4.82-15.55-6.9-23.24
					c-2.19-8.09-4.46-16.45-7.35-24.58c-7.03-19.72-9.26-36.51-7.03-52.85c2.45-17.93,11.46-32.99,26.05-43.54
					C550.2,531.05,567.96,525.66,586.67,525.66 M586.67,522.05c-38.3,0-74.14,21.66-79.63,61.84c-2.57,18.83,0.85,36.72,7.21,54.55
					c5.61,15.73,8.74,32.1,14.25,47.8c7.9,22.49,23.78,43.73,49.3,43.73c2.07,0,4.21-0.14,6.41-0.43
					c21.8-2.88,40.96-22.08,50.64-40.75c8.15-15.72,14.69-34.61,14.42-52.83c2.73-0.13,5.52-0.6,8.33-1.5
					c17.58-5.6,32.31-25.16,25.41-44.02c-6.1-16.68-14.9-32.58-28.63-44.44c-16.89-14.59-35.97-21.44-58.2-23.51
					C593.01,522.19,589.83,522.05,586.67,522.05L586.67,522.05z"/>
			</g>
			<g>
				<g>
					<path class="st7" d="M596.64,764.06c-9.52,0-18.14-4.58-23.06-12.25c-3.71-5.78-4.91-13.09-3.29-20.08
						c1.63-7.05,5.79-12.92,11.73-16.53c74.24-45.16,141.7-84.97,215.41-114.9c2.45-0.99,5.07-1.5,7.8-1.5
						c10.98,0,22.62,8.52,25.93,19c5.02,15.86-5.76,28.39-17.9,33.32c-69.66,28.29-135.85,68.54-199.86,107.47l-2.49,1.52
						C606.66,762.7,601.72,764.06,596.64,764.06L596.64,764.06z"/>
					<path d="M805.22,600.61c10.25,0,21.11,7.96,24.21,17.74c4.67,14.76-5.46,26.47-16.86,31.1
						c-69.79,28.34-136.04,68.64-200.11,107.61l-2.49,1.52c-3.97,2.41-8.58,3.69-13.33,3.69c-8.77,0-17.02-4.38-21.54-11.42
						c-3.44-5.37-4.56-12.18-3.05-18.7c1.52-6.57,5.39-12.04,10.91-15.39c74.18-45.12,141.57-84.89,215.15-114.77
						C800.34,601.07,802.73,600.61,805.22,600.61 M805.22,596.99c-2.86,0-5.72,0.51-8.48,1.63c-75.91,30.83-146,72.66-215.67,115.03
						c-13.24,8.05-17.28,26.25-9.02,39.13c5.44,8.47,14.94,13.08,24.58,13.08c5.24,0,10.52-1.36,15.21-4.21
						c65.32-39.73,131.67-80.26,202.09-108.86c14.39-5.84,23.87-19.97,18.95-35.54C829.39,606.22,817.36,596.99,805.22,596.99
						L805.22,596.99z"/>
				</g>
			</g>
			<g>
				<g>
					<path class="st7" d="M517.55,766.25c-4.45,0-7.92-2.48-9.27-6.63c-4.06-12.44-9.47-22.91-16.08-31.13
						c-6.64-8.25-13.68-11.93-22.84-11.93c-2.92,0-6.15,0.36-9.87,1.11c-0.76,0.15-1.52,0.23-2.25,0.23l0,0
						c-5.87,0-9.52-4.94-9.98-9.59c-0.17-1.75-0.2-7.58,6.8-8.98c7.41-1.48,13.53-2.2,18.71-2.2c13.13,0,20.33,4.67,29.04,13.29
						c10.61,10.5,19.12,25.41,25.28,44.3c0.92,2.83,0.61,5.42-0.91,7.51C524.37,764.7,521.07,766.25,517.55,766.25z"/>
					<path d="M472.77,698.93c12.57,0,19.21,4.3,27.77,12.76c10.41,10.3,18.76,24.96,24.83,43.57c0.74,2.28,0.53,4.26-0.65,5.89
						c-1.45,2-4.26,3.29-7.17,3.29c-1.74,0-5.97-0.52-7.55-5.39c-4.12-12.65-9.64-23.31-16.39-31.71
						c-7.01-8.72-14.49-12.6-24.25-12.6c-3.04,0-6.38,0.37-10.22,1.14c-0.65,0.13-1.28,0.19-1.89,0.19c-4.8,0-7.8-4.1-8.18-7.96
						c-0.17-1.76,0-5.96,5.36-7.03C461.71,699.64,467.71,698.93,472.77,698.93 M472.77,695.31c-5.29,0-11.5,0.73-19.06,2.24
						c-13.64,2.73-9.07,22.15,3.53,22.15c0.83,0,1.7-0.08,2.6-0.26c3.45-0.69,6.6-1.07,9.51-1.07c8.45,0,14.95,3.2,21.43,11.26
						c7.21,8.96,12.25,19.75,15.77,30.56c1.79,5.5,6.39,7.88,10.99,7.88c6.99,0,14.01-5.5,11.26-13.91
						c-5.29-16.23-13.36-32.79-25.73-45.02C494.14,700.28,486.6,695.31,472.77,695.31L472.77,695.31z"/>
				</g>
			</g>
			<path class="st9" d="M514.49,729.72c10.77,5.51,20.29,16.16,25.38,26.94c4.82,10.22,13.44,27.97,27.84,25.12
				c14.59-2.88,28.16-13.48,39.77-22.01c21.07-15.49,41.28-34.83,61.69-52.21c39.01-33.2,78.42-65.9,116.09-100.6
				c11.4-10.5,29.05-11.87,40.78-0.77c10.81,10.23,12.16,29.63,0.79,40.11c-43.5,40.06-89.37,77.41-134.14,116.06
				c-24.8,21.41-49.2,44.9-78.19,60.85c-37,20.36-101.39,35.59-131.11-4.54c-8.18-11.04-14.8-23.08-21.4-35.07"/>
			<path class="st3" d="M632.61,642.17c0.4,6.86,1.51,14.9,7.54,18.19c3.99,2.17,8.95,1.45,13.2-0.14
				c4.55-1.71,8.71-4.33,12.54-7.31c8.21-6.39,14.93-14.44,20.68-23.07c4.29-6.44,8.35-20.01,15.81-23.23
				c-1.57,0.68-2.91,0.56-4.57,0.43c-1.98-0.16-3.75-0.08-5.63-0.9c-1.57-0.68-3.08-1.92-3.29-3.59c-0.16-1.32,0.55-2.64,1.57-3.52
				c2.16-1.89,4.25-1.8,6.93-1.4c5.8,0.86,16.74-0.98,23.03-7.04c4.16-4,6.02-7.67,8.51-15.17c-0.38,0.81-4.35,3.83-9.95,5.66
				c-5.6,1.84-12.07,1.47-14.93,0c3.73,1.83,7.46-7.34,14.92-9.17c-3.09,0.76-10.09-0.99-13.42-1.36
				c-5.99-0.67-10.93-1.86-15.94-5.16c-10.85-7.16-20.82-15.79-29.66-25.31c-4.88-5.25-9.44-10.84-14.92-15.46
				c-12.93-10.91-30.12-15.69-47.01-16.66c-14.3-0.82-28.88,0.93-42.17,6.28c-19.03,7.67-35.92,24.95-46.42,42.25
				c-8,13.18-11.77,30.96-6.91,46.04c0.92,2.85,2.25,5.56,3.87,8.07c1.28,1.98,3.2,4.94,5.52,5.83c0.04-3.12-1.09-6.49-1.3-9.66
				c-0.21-3.14-0.14-6.28,0.19-9.41c0.53-5.1,2.12-10.8,6.77-13.12c4.32-2.16,9.62-0.48,13.72,2.06
				c11.36,7.03,17.63,19.56,24.53,30.88c6.7,10.99,14.47,21.32,22.21,31.63c4.74,6.3,9.53,12.66,15.57,17.78
				c6.04,5.12,13.51,8.96,21.47,9.31c7.44,0.32,13.09-7,17.69-12.75c4.6-5.76,7.96-12.36,11.82-18.63
				c4.34-7.06,9.35-13.73,14.93-19.89c5.53-6.1,13.97-12.75,22.14-14.18c-3.08-3.18-7.8-4.74-11.83-2.89
				c-3.33,1.53-5.64,4.62-7.69,7.66c-4.58,6.79-11.96,7.9-15.34,15.36c-2.17,4.8-2.19,11.56,2.37,14.2
				c2.36,1.37,5.29,1.21,7.98,0.78c11.89-1.93,22.9-8.75,29.92-18.54c3.73-5.2,6.86-12.27,11.5-17.18"/>
			<path class="st10" d="M521.45,595.36c2.67,10.51,13.76,18.27,24.73,17.3c11.29-0.99,20.07-9.62,28.4-17.18
				c21.18-19.23,45.95-34.63,72.7-45.19c5.34,3.9-2.13,13.96,2.77,18.38c3.34,3.02,8.57,0.08,12.13-2.69
				c9.1-7.06,19.04-13.07,29.56-17.86c10.94-4.99,23.67-8.66,34.88-4.3"/>
			<path class="st11" d="M542.49,706.56c13.93-4.17,24.76-16.96,26.41-31.19"/>
			<path class="st11" d="M557.73,697.69c-1.83-0.05-3.33-1.41-4.55-2.75c-1.69-1.85-3.24-3.87-4.22-6.17
				c-0.98-2.29-1.37-4.9-0.71-7.3c0.64-2.31,2.2-4.3,4.09-5.82c2.74-2.2,6.7-3.47,9.83-1.85s4.3,5.43,4.64,8.9"/>
			<path class="st11" d="M556.75,680.61c0.74-0.32,1.43,0.54,1.75,1.28c1.65,3.79,2.51,7.92,2.52,12.04"/>
			<ellipse transform="matrix(0.9499 -0.3127 0.3127 0.9499 -176.1544 198.3392)" cx="530.33" cy="648.4" rx="3.25" ry="9.91"/>
			<g>
				<path class="st7" d="M785.43,606.6c3.99-1.72,8.08-3.13,12.31-4.02c1.19-0.25,2.38-0.46,3.58-0.63c0.3-0.04,0.63-0.08,0.89,0.08
					c0.2,0.12,0.32,0.34,0.42,0.55c1.14,2.41,1.2,5.23,0.35,7.74c-0.9,2.65-3.03,4.41-4.25,6.87c-2.76,5.55-6.72,10.58-11.87,14.18
					c-6.33,4.42-13.93,6.4-21.49,7.64c-7.73,1.27-14.2,7.24-21.47,10.4c-2.76,1.2-8.99,3.16-11.48,0.42
					c-0.67-0.73-0.98-1.7-1.28-2.64c-0.31-0.97-0.61-2.01-0.29-2.98c0.31-0.92,1.15-1.57,1.94-2.15c4.38-3.25,8.59-6.69,13.04-9.86
					c4.66-3.32,8.53-8.63,13.54-11.42C767.83,616.05,776.37,610.52,785.43,606.6z"/>
			</g>
			<path class="st12" d="M513.73,640.46c0.89,1.13,2.01,2.35,3.45,2.3c1.56-0.06,2.62-1.59,3.28-3.01
				c1.66-3.56,2.49-7.44,3.89-11.11s3.51-7.28,6.9-9.26"/>
		</g>
		<g>
			<line class="st13" x1="243.98" y1="549.19" x2="356.33" y2="549.19"/>
			<line class="st13" x1="275.24" y1="563.6" x2="320.67" y2="563.6"/>
			<line class="st13" x1="332.88" y1="563.6" x2="357.79" y2="563.6"/>
			<line class="st13" x1="244.96" y1="577.05" x2="290.38" y2="577.05"/>
		</g>
		<g>
			<line class="st13" x1="303.98" y1="576.19" x2="416.33" y2="576.19"/>
			<line class="st13" x1="335.24" y1="590.6" x2="380.67" y2="590.6"/>
			<line class="st13" x1="392.88" y1="590.6" x2="417.79" y2="590.6"/>
			<line class="st13" x1="304.96" y1="604.05" x2="350.38" y2="604.05"/>
		</g>
		<g>
			<line class="st14" x1="266.98" y1="618.19" x2="379.33" y2="618.19"/>
			<line class="st14" x1="298.24" y1="632.6" x2="343.67" y2="632.6"/>
			<line class="st14" x1="355.88" y1="632.6" x2="380.79" y2="632.6"/>
			<line class="st14" x1="267.96" y1="646.05" x2="313.38" y2="646.05"/>
		</g>
		<path class="st8" d="M546.27,328.8c6.09-7.5,17.09-10.55,26.18-7.27"/>
		<line class="st13" x1="434.45" y1="546.64" x2="459.36" y2="546.64"/>
		<line class="st15" x1="436.45" y1="556.6" x2="454" y2="556.66"/>
		<line class="st13" x1="438.45" y1="565.6" x2="463.36" y2="565.68"/>
		<line class="st16" x1="440.45" y1="574.6" x2="465.36" y2="574.68"/>
		<line class="st16" x1="442.45" y1="583.6" x2="467.36" y2="583.68"/>
		<line class="st13" x1="446.45" y1="601.6" x2="471.36" y2="601.68"/>
		<line class="st13" x1="448.45" y1="610.6" x2="473.36" y2="610.68"/>
		<line class="st14" x1="450.45" y1="619.6" x2="475.36" y2="619.68"/>
		<line class="st14" x1="452.45" y1="628.6" x2="477.36" y2="628.68"/>
		<line class="st17" x1="454.45" y1="637.6" x2="470.69" y2="637.65"/>
		<line class="st17" x1="455.74" y1="646.6" x2="471.99" y2="646.65"/>
	</g>
	<g>
		<path class="st7" d="M800.2,145.53l6.87,3.78l-3.78,6.87l-6.87-3.78L800.2,145.53z M795,187.71l7.6-13.79l6.95,3.76l3.78-6.87
			l6.95,3.76l7.63-13.84l-20.76-11.44l3.78-6.87l27.63,15.23l-3.81,6.92l6.92,3.81l-7.6,13.79l-6.87-3.78l-3.87,6.89l-6.87-3.78
			l-7.68,13.81l-6.87-3.78L795,187.71z M791.16,194.69l13.79,7.6l-7.6,13.79l-13.79-7.6L791.16,194.69z"/>
	</g>
</g>
<g id="Layer_6" class="st18">
</g>
<g id="Layer_4" class="st18">
</g>
</svg>
