<?xml version="1.0" encoding="utf-8"?>
<!-- Generator: Adobe Illustrator 23.1.0, SVG Export Plug-In . SVG Version: 6.00 Build 0)  -->
<svg version="1.1" id="Layer_1" xmlns="http://www.w3.org/2000/svg" xmlns:xlink="http://www.w3.org/1999/xlink" x="0px" y="0px"
	 viewBox="0 0 986 979" style="enable-background:new 0 0 986 979;" xml:space="preserve">
<style type="text/css">
	.st0{fill:#FF9100;}
	.st1{fill:none;}
	.st2{fill:url(#SVGID_1_);}
	.st3{fill:#6300FF;}
	.st4{fill:none;stroke:#FF29FA;stroke-width:17;stroke-miterlimit:10;}
	.st5{fill:none;stroke:#FF9100;stroke-width:30;stroke-miterlimit:10;}
	.st6{fill:none;stroke:#FF29FA;stroke-width:8.8514;stroke-miterlimit:10;}
	.st7{fill:#FFFFFF;}
	.st8{fill:none;stroke:#FFFFFF;stroke-width:4.4816;stroke-linecap:round;stroke-miterlimit:10;}
	.st9{fill:#FFFFFF;stroke:#000000;stroke-width:3.616;stroke-linecap:round;stroke-miterlimit:10;}
	.st10{fill:none;stroke:#000000;stroke-width:4.1303;stroke-linecap:round;stroke-miterlimit:10;}
	.st11{fill:#FF29FA;}
	.st12{fill:none;stroke:#000000;stroke-width:3.616;stroke-linecap:round;stroke-miterlimit:10;}
	.st13{fill:none;stroke:#6300FF;stroke-width:4;stroke-linecap:round;stroke-miterlimit:10;}
	.st14{fill:none;stroke:#FFFFFF;stroke-width:3.7728;stroke-linecap:round;stroke-linejoin:round;stroke-miterlimit:10;}
	.st15{fill:none;stroke:#FF9100;stroke-width:6.7817;stroke-linecap:round;stroke-miterlimit:10;}
	.st16{fill:none;stroke:#FF29FA;stroke-width:6.7817;stroke-linecap:round;stroke-miterlimit:10;}
	.st17{fill:none;stroke:#FF9100;stroke-width:5.692;stroke-linecap:round;stroke-miterlimit:10;}
	.st18{fill:none;stroke:#C6C6C6;stroke-width:6.7817;stroke-linecap:round;stroke-miterlimit:10;}
	.st19{fill:none;stroke:#FF29FA;stroke-width:5.476;stroke-linecap:round;stroke-miterlimit:10;}
	.st20{display:none;}
</style>
<g id="Layer_3">
	<rect x="1.3" y="0.3" class="st0" width="985.6" height="977.9"/>
	<g id="Layer_5">
	</g>
	<g>
		<path d="M829.4,925H107.8C91.3,925,78,911.7,78,895.3V140.9c0-16.4,13.3-29.8,29.8-29.8h721.6c16.4,0,29.8,13.3,29.8,29.8v754.3
			C859.2,911.7,845.8,925,829.4,925z"/>
		<g>
			<path class="st1" d="M195.5,931.4c-5.5,0-10.9,0.1-16.4,0.2h40.8C211.9,931.4,203.7,931.4,195.5,931.4z"/>
			
				<linearGradient id="SVGID_1_" gradientUnits="userSpaceOnUse" x1="-20.265" y1="1297.0525" x2="654.0692" y2="77.2202" gradientTransform="matrix(1 0 0 1 0 -100)">
				<stop  offset="0.3855" style="stop-color:#FFFFFF"/>
				<stop  offset="0.4462" style="stop-color:#FAFAFA"/>
				<stop  offset="0.5223" style="stop-color:#EAEAEA"/>
				<stop  offset="0.6067" style="stop-color:#D0D0D0"/>
				<stop  offset="0.6971" style="stop-color:#ADADAD"/>
				<stop  offset="0.7924" style="stop-color:#7F7F7F"/>
				<stop  offset="0.8916" style="stop-color:#464646"/>
				<stop  offset="0.9925" style="stop-color:#050505"/>
				<stop  offset="1" style="stop-color:#000000"/>
			</linearGradient>
			<path class="st2" d="M849,490.3c54.8-95.8,90.6-200,98.2-306.3c0.2-2.2,0.9-7.5-1.1-9.2c-2.6-2.2-3.8,4.2-4,5.6
				c-0.2,1.7-0.5,3.4-0.7,5.1c-0.2,1.1,0,3.1-1.3,1.6c-1.6-1.9-1.1-6.5-1-8.8c0.2-3.1,0.6-6.1,1-9.2c0.2-1.5,0.3-2.9,0.4-4.4
				c0.1-1.1,0.1-2.9-0.8-3.7c-0.4-0.4-0.8-0.7-1.2-0.9c-0.8-0.5-1.8-0.6-2.5,0c-0.8,0.7-1.2,1.9-1.4,3c-0.4,1.6-0.6,3.2-0.7,4.8
				c-0.1,1.9-0.2,3.7-0.3,5.6c0,2.2,0.4,4.4-0.8,6.4c-0.1,0.3-0.3,0.5-0.5,0.6c-1.3,0.9-1.6-2.9-1.8-3.6c-0.2-1.2-0.3-2.4-0.5-3.6
				c-0.4-3.2-0.6-6.4-0.4-9.6c0.1-1.5,0.6-6.3-1.1-7.1c-5.2-2.3-5.6,3.3-5.4,7.1c0.2,3.8,0.8,7.6,1.2,11.4c0.1,1.6,0.3,3.2,0.1,4.8
				c-0.1,0.6-0.8,4-1.9,2.7c-0.7-0.8-0.4-2.3-0.4-3.2c0-1.4-0.1-2.9-0.2-4.4c-0.1-2.9-0.3-5.8-0.5-8.7c-0.1-1.7,0.4-7.7-2.5-7.9
				c-3.9-0.2-3.1,8.3-3.1,10.7c0,4.9-0.3,9.8-1.1,14.6c-0.8,5.2-2.6,15.4-9,16.7c-8.7,1.9-10.9-6.3-13-12.8
				c-0.4-1.2-0.8-2.5-1.5-3.6c-0.6-0.9-2.6-2.6-3.6-1.4c-0.3,0.3-0.3,0.8-0.3,1.2c-0.1,1.9,0.5,3.7,0.5,5.5c0,1.3-0.5,2.8-0.7,4.1
				c-0.4,3-1,5.9-1.6,8.9c-1.2,5.3-2.9,10.5-5.2,15.5c-3.8,8.4-9.2,16.2-16.2,22.3c-5.9,5.1-13,9-20.6,10.8
				c-6.9,1.7-14.1,1.7-20.9-0.3c-5.2-1.5-10-4.2-14-7.9c-12.9-11.3-15.2-28.7-18.5-44.6c-5.1-20.5-11.2-40.5-20.6-59.9
				C705,30,619.4,31.1,591.3,21.1c-81.5-12-157,22.7-219.8,79.9c-19.1,16.2-38.3,45.3-56.3,61.5c-61.4,43.6-196.8-6-139.5-58.3
				c3.1-2,2-6-1.6-5.9c-0.6,0-2.6,2.6-3.2,3.1c-1,0.9-2,1.8-3.1,2.7c-1.7,1.4-3.4,2.7-5.3,3.9c-2.3,1.4-5.3,2.8-8,2.1
				c-3.7-1-4.8-5.6-5.3-8.8c-1.1-7-0.6-14.8,2-21.4c0.7-1.9,1.7-3.8,2.1-5.9c0.2-1,0.6-4.5-0.6-5.1c-2.1-1.1-3.2,0-4.1,2
				c-0.7,1.4-1.3,2.9-1.8,4.4c-0.8,2.9-1.8,5.8-2.9,8.7c-0.5,1.3-1,3.1-1.7,4.3c-0.4,0.8-0.8,0.9-1.2,0.3c-0.6-0.9,0.3-3.6,0.6-4.5
				c0.9-3.3,2.3-6.6,2.8-10c0.5-2.9,1.8-5.6,1.3-8.6c-0.4-2-2.1-1.8-3.4-0.6c-0.8,0.8-1.7,1.8-2.1,2.9c-1,2.6-1.5,5.3-2.1,8
				c-0.6,2.8-1.1,5.6-2,8.2c-0.2,0.6-2.2,5.9-3.2,2.9c-0.1-0.3-0.1-0.7-0.1-1.1c0.1-3.6,0.8-7,1.4-10.5c0.3-1.9,2.2-10.4-1.8-10.2
				c-4.6,0.3-4.4,7.4-4.7,10.6c-0.5,5.6-1.2,11-3.4,16.2c-0.1,0.1-0.1,0.3-0.2,0.3c-0.2,0.2-0.5,0.1-0.7-0.2
				c-0.2-0.2-0.2-0.5-0.2-0.7c0.1-3.4,0.8-6.9,1.4-10.3c0.7-3.8-5.3-4.4-6-0.7c-9.9,51.3-24.9,99.1-42.8,145.4v673.4
				c0,18.1,14.7,32.7,32.7,32.7h74.9c5.5-0.1,10.9-0.2,16.4-0.2c8.2,0,16.4,0,24.5,0.2c70.6,0,133.1-11.8,197.4-42.7
				C589.5,808.6,750.1,663.2,849,490.3z"/>
		</g>
		<polygon class="st3" points="394,672 409.5,654.7 345.2,618.7 360.7,601.4 296.4,565.3 311.8,548.1 247.5,512 263,494.7 
			198.7,458.7 214.2,441.4 149.9,405.3 165.3,388.1 101.1,352 116.5,334.7 54.5,299.9 69.6,283.1 5.3,247 25.3,224.7 -39,188.6 
			-85.5,240.5 -21.2,276.6 -41.2,298.9 20.8,333.7 5.8,350.6 70,386.6 54.6,403.9 118.9,440 103.4,457.2 167.7,493.3 152.3,510.6 
			216.5,546.6 246.5,513.1 201.1,563.9 265.4,600 295.4,566.4 249.9,617.2 314.2,653.3 344,620 298.7,670.6 363,706.6 393.2,672.9 
			347.6,723.9 411.9,760 458.3,708 		"/>
		<polygon class="st3" points="656.3,843.8 659.4,797.6 589.6,824.5 592.8,776.3 522.9,803.2 526.2,755 456.3,781.9 459.5,733.7 
			389.7,760.6 392.9,712.3 323.1,739.3 326.3,691 256.5,718 259.7,669.7 189.9,696.7 193.1,648.4 123.1,675.4 126.3,626.3 
			59.5,652.1 63.6,590.6 -16.5,621.5 -26.9,778.5 39.9,752.7 35.8,814.1 105.8,787.1 102.6,836.2 172.4,809.3 169.2,857.5 
			239,830.6 235.8,878.8 305.6,851.9 302.4,900.2 372.2,873.2 369,921.5 438.8,894.5 435.6,942.8 505.5,915.8 502.3,964.1 
			572.1,937.2 568.9,985.4 634.2,960.2 631.1,1006.4 711.2,975.5 721.6,818.6 		"/>
		<g>
			<polygon class="st3" points="1.2,497.1 -66.8,473.2 -76,494.1 -7.9,518 			"/>
			<polygon class="st3" points="187.2,610.7 196.3,589.8 128.2,565.9 131.3,558.9 63.2,535 62.4,536.8 66.3,528 -1.8,504.1 
				-10.9,525 57.1,548.9 54.1,555.9 122.2,579.8 124.2,575 119.1,586.8 			"/>
			<polygon class="st3" points="317.2,672.5 326.4,651.6 258.3,627.6 261.3,620.7 193.3,596.7 184.2,617.7 252.2,641.6 253,639.8 
				249.2,648.5 			"/>
			<polygon class="st3" points="323.3,658.5 314.2,679.4 382.3,703.4 391.4,682.5 			"/>
		</g>
		<line class="st4" x1="-75.5" y1="706.1" x2="342.5" y2="678.9"/>
		<line class="st5" x1="92.3" y1="616" x2="492.8" y2="739"/>
		<line class="st6" x1="225.1" y1="417.1" x2="393.6" y2="593.1"/>
		<ellipse transform="matrix(0.5 -0.866 0.866 0.5 71.5492 750.5517)" class="st7" cx="685.8" cy="313.3" rx="20.6" ry="11.2"/>
		
			<ellipse transform="matrix(0.4248 -0.9053 0.9053 0.4248 38.0587 597.8723)" class="st7" cx="489.5" cy="269" rx="21.3" ry="12.2"/>
		<path class="st8" d="M506.5,213c-0.2-4-4-7.1-7.9-7.8c-3.9-0.6-7.9,0.6-11.6,2.3c-7.5,3.4-14.3,8.5-18.3,15.7"/>
		<path class="st8" d="M685.5,272.7c0.8,2.4,1.6,4.8,2.4,7.1c0.4,1.2,0.9,2.4,2,3c2.2,1,2.1,1.1,3.2-1c13-7.3,27.4-12.4,42.3-14.9"
			/>
		<g>
			<path d="M713.7,793.2l-7.4,16.3H380.7c-5.9,0-11.6-1.4-16.8-4.2l-126.7-67.4v-10l7.4-6.3L713.7,793.2z"/>
			<g>
				<path d="M572.2,728.4H236.9l-49-183.8c-3.2-12,6-23.7,18.6-23.7h295.6c8.7,0,16.4,5.8,18.6,14.1L572.2,728.4z"/>
			</g>
			<g>
				<path d="M245.1,719.8l-48.6-182.5c-1.4-5.1-0.3-10.4,2.9-14.6c3.3-4.3,8.4-6.8,13.9-6.8H509c7.9,0,14.8,5.3,16.8,12.8
					l50.9,191.1L245.1,719.8L245.1,719.8z"/>
				<path class="st7" d="M509,517.7c7.1,0,13.3,4.7,15.1,11.4L574.4,718H246.5l-48.3-181.1c-1.2-4.5-0.3-9.3,2.6-13
					c3-3.9,7.5-6.1,12.5-6.1L509,517.7 M509,514.1H213.4c-12.6,0-21.8,11.7-18.6,23.7l49,183.8h335.4l-51.5-193.4
					C525.4,519.9,517.8,514.1,509,514.1L509,514.1z"/>
			</g>
			<path d="M706.3,809.5H388.7c-11,0-21.9-2.7-31.6-7.9l-119.8-63.7h334.4L706.3,809.5z"/>
			<polygon points="713.7,793.2 379.3,793.2 244.7,721.6 579,721.6 			"/>
			<g>
				<g>
					<path class="st7" d="M777.1,713.3c-11.3,0-22.9-8.9-26-19.9c-4.5-15.9,6.8-28.1,19-32.7c18-6.7,35.8-13,52.8-18.7
						c8.2-2.7,16.6-5.4,24.9-8c7.8-2.5,14.6-4.6,21.6-4.6c4.9,0,9.6,1.1,14.4,3.3c7.6,3.5,13.6,13.8,13.2,22.8l0,0.8
						c-0.6,16.3-11.9,23.4-21.3,26.5c-6.1,1.8-12.2,3.7-18.3,5.5c-25.1,7.5-48.8,14.5-73.2,23.7
						C781.9,712.9,779.5,713.3,777.1,713.3L777.1,713.3z"/>
					<path d="M869.4,631.3c4.7,0,9,1,13.7,3.2c6.9,3.2,12.5,12.8,12.2,21.1l0,0.4l0,0.4c-0.4,12.3-7.2,20.6-20,24.8
						c-6.2,1.9-12.3,3.7-18.3,5.5c-25.1,7.5-48.9,14.5-73.3,23.7c-2,0.8-4.2,1.2-6.5,1.2c-10.3,0-21.4-8.5-24.2-18.6
						c-4.1-14.8,6.4-26.2,17.9-30.5c18-6.7,35.7-13,52.7-18.7c8.2-2.7,16.5-5.4,24.8-8C856,633.4,862.7,631.3,869.4,631.3
						 M869.4,627.7c-7.2,0-14.2,2.2-22.1,4.7c-8.3,2.6-16.6,5.3-24.9,8c-17.7,5.9-35.4,12.2-52.9,18.7
						c-14.5,5.5-24.6,19.1-20.2,34.9c3.2,11.3,15.3,21.2,27.7,21.2c2.6,0,5.2-0.4,7.8-1.4c30.3-11.4,60.4-19.7,91.5-29.1
						c11.5-3.8,21.9-12,22.5-28.2c0-0.3,0-0.6,0-0.8c0.3-9.2-5.6-20.5-14.3-24.5C879.1,628.7,874.2,627.7,869.4,627.7L869.4,627.7z"
						/>
				</g>
			</g>
			<g>
				<path class="st9" d="M834,657.8c-6.5,8-13.6,15.6-20.6,23.2c-13.5,14.6-25.2,29.3-35,46.4c-7.7,13.3,2.7,31.7,15.8,37
					c16,6.4,29.9-2.2,37.6-15.6c-1.5,2.5,0.5-0.7,1-1.4c1.2-1.6,2.2-3.3,3.4-4.9c2.6-3.7,5.4-7.2,8.3-10.6
					c5.5-6.6,11.3-12.8,17.1-19.1c11.6-12.5,23.1-25.2,32-39.8c8-13.1,7.6-29.9-5.8-39.7c-7.7-5.7-19.6-6.1-29-2.4"/>
			</g>
			<g>
				<g>
					<path class="st7" d="M495.9,778.9c-4.4,0-7.7-2.5-8.9-6.7c-1.9-6.7-5.2-11.8-10.1-15.5c-2.6-2-9.9-6.3-15-6.3
						c-1.3,0-2.4,0.3-3.3,0.8c-1.6,0.9-3.2,1.4-4.9,1.4l0,0c-4.8,0-8.3-3.9-9.3-7.8c-0.5-2-1.1-6.9,4.3-10c3.5-2,7.6-3,12.4-3
						c7.4,0,16.1,2.6,23.3,6.9c10.5,6.3,17.9,16.2,21.4,28.5c0.8,2.9,0.4,5.5-1.2,7.7C502.7,777.3,499.3,778.9,495.9,778.9z"/>
					<path d="M461.1,733.5c7.1,0,15.5,2.5,22.4,6.6c10.1,6.1,17.2,15.6,20.6,27.5c0.7,2.4,0.4,4.4-0.9,6.1c-1.5,2-4.4,3.3-7.2,3.3
						c-1.7,0-5.8-0.5-7.1-5.4c-2-7.1-5.5-12.5-10.7-16.5c-1.8-1.4-10-6.7-16.1-6.7c-1.6,0-3,0.3-4.2,1c-1.3,0.8-2.7,1.2-4,1.2
						c-3.8,0-6.8-3.3-7.6-6.5c-0.5-1.9-0.8-5.6,3.5-8C452.8,734.4,456.7,733.5,461.1,733.5 M461.1,729.9c-4.7,0-9.3,1-13.3,3.2
						c-10.9,6.2-4.2,21.2,5.9,21.2c1.8,0,3.8-0.5,5.8-1.6c0.7-0.4,1.5-0.5,2.4-0.5c4.5,0,11.5,4,14,5.9c4.9,3.8,7.8,8.8,9.5,14.6
						c1.6,5.6,6.1,8,10.6,8c6.9,0,14-5.5,11.6-14c-3.5-12.3-11-22.9-22.2-29.6C478.6,733,469.6,729.9,461.1,729.9L461.1,729.9z"/>
				</g>
			</g>
			<g>
				<g>
					<path class="st7" d="M479.3,780c-2.2,0-5.1-0.8-7-4.8c-3.2-6.7-6.9-11.4-11.7-14.6c-1.8-1.3-7.6-4.5-11.8-4.5
						c-1.6,0-2.9,0.4-3.9,1.3c-1.9,1.7-4.1,2.6-6.5,2.6l0,0c-4.2,0-8.5-3-10-6.9c-0.7-1.9-1.4-5.6,2.5-9c5.1-4.6,11.1-6.9,17.8-6.9
						c16.8,0,33.6,14.3,40.2,28.1c1.5,3.2,1.3,6.5-0.5,9.4C486.5,777.9,482.8,780,479.3,780z"/>
					<path d="M448.8,738.9c15.9,0,32.4,14.1,38.5,27.1c1.6,3.3,0.7,6-0.4,7.7c-1.6,2.6-4.8,4.4-7.6,4.4c-2.4,0-4.2-1.3-5.4-3.8
						c-2.1-4.4-5.7-10.8-12.3-15.3c-0.1,0-7.1-4.8-12.9-4.8c-2.1,0-3.8,0.6-5.1,1.8c-1.6,1.4-3.4,2.1-5.3,2.1c-3.5,0-7-2.5-8.3-5.8
						c-0.7-1.8-0.9-4.4,2-7C437,741.1,442.5,738.9,448.8,738.9 M448.8,735.3c-6.6,0-13.2,2.2-19,7.3c-8.6,7.7-0.5,19.1,8.6,19.1
						c2.6,0,5.3-0.9,7.7-3c0.7-0.6,1.6-0.8,2.7-0.8c3.7,0,8.9,2.9,10.8,4.2c5.2,3.5,8.5,8.4,11.1,13.9c2,4.1,5.3,5.9,8.7,5.9
						c7.5,0,15.5-8.3,11.3-17.3C483.6,749.7,465.9,735.3,448.8,735.3L448.8,735.3z"/>
				</g>
			</g>
			<g>
				<g>
					<path class="st7" d="M468.5,791.8c-2.2,0-5.1-0.8-7-4.8c-8.8-18.7-27.2-30.8-46.9-30.8c-7.3,0-14.4,1.6-21.2,4.8
						c-1.5,0.7-3,1-4.5,1l0,0c-5.3,0-9.4-4.3-10.3-8.5c-0.8-3.8,0.9-7,4.7-8.8c10-4.7,20.6-7,31.5-7c27.7,0,51.9,15.1,63.3,39.4
						c1.5,3.2,1.3,6.6-0.5,9.5C475.6,789.7,472,791.8,468.5,791.8z"/>
					<path d="M414.9,739.5c27,0,50.6,14.7,61.7,38.4c1.6,3.4,0.6,6.1-0.4,7.7c-1.7,2.6-4.8,4.4-7.6,4.4c-2.4,0-4.2-1.3-5.4-3.8
						c-9-19.3-28.1-31.8-48.5-31.8c-7.5,0-14.9,1.7-21.9,4.9c-1.2,0.6-2.5,0.9-3.7,0.9c-4.4,0-7.8-3.6-8.6-7.1
						c-0.5-2.1-0.2-5,3.7-6.8C393.9,741.8,404.2,739.5,414.9,739.5 M414.9,735.9c-10.8,0-21.9,2.3-32.3,7.2
						c-11.6,5.4-4.4,20.8,6.4,20.8c1.7,0,3.4-0.4,5.2-1.2c6.7-3.1,13.6-4.6,20.4-4.6c19.1,0,36.8,11.6,45.2,29.8
						c1.9,4.2,5.2,5.9,8.6,5.9c7.5,0,15.5-8.3,11.3-17.3C467.6,750.3,441.8,735.9,414.9,735.9L414.9,735.9z"/>
				</g>
			</g>
			<path class="st9" d="M697.1,995.5c-0.9-19.4-1.7-38.9-2.6-58.3c-0.8-17.6-1.6-35.5-6.3-52.5c-3.1-11.3-7.9-22-13.2-32.5
				c-13-26.2-27.7-49.6-47.4-70.9c-6.6-7.1-35.6-32.7-33.7-43.3c4.4-24.1,19.7-41.6,43.5-48.9c23.1-7.1,47.9-1.7,71.8,1.6
				c2.3,0.3,4.6,0.6,6.7-0.3c2.6-1.2,4-3.9,5.7-6.2c3.6-4.9,12.4-9.6,12.4-9.6c10-5.4,25.9,6,35.6,8.7c44,12,77.7,49.4,102.9,85.5
				c27.9,40,48.3,84.7,65.3,130.2c18.7,50,29.5,104,23.1,157"/>
			<g>
				<path class="st7" d="M574.8,728.2c-29.5,0-43.1-29.7-47.6-42.5c-2.7-7.7-4.8-15.6-6.9-23.4c-2.2-8-4.4-16.4-7.3-24.5
					c-7.1-20-9.4-37.1-7.1-53.7c2.5-18.4,11.8-33.9,26.8-44.8c13.8-10,32-15.5,51.1-15.5c3.1,0,6.2,0.2,9.3,0.4
					c23.3,2.2,41.5,9.5,57.2,23.1c11.9,10.3,21.1,24.6,28.1,43.7c3.3,9,1,17-1.5,22.1c-4.4,9-13.1,16.5-22.7,19.6
					c-2.5,0.8-5.2,1.3-7.9,1.4l-1.8,0.1l0,1.8c0.3,19.7-7.6,39.2-14.2,52c-9.2,17.8-28,37-49.3,39.8
					C578.9,728,576.8,728.2,574.8,728.2L574.8,728.2z"/>
				<path d="M583.7,525.7c3,0,6.1,0.1,9.2,0.4c22.9,2.1,40.8,9.3,56.2,22.7c11.7,10.1,20.7,24.2,27.6,42.9
					c3.1,8.4,0.9,15.9-1.5,20.7c-4.2,8.6-12.5,15.7-21.7,18.6c-2.4,0.8-4.9,1.2-7.4,1.3l-3.5,0.2l0,3.5c0.3,19.3-7.5,38.5-14,51.1
					c-9,17.4-27.3,36.1-47.9,38.8c-2,0.3-4,0.4-5.9,0.4c-10.8,0-20.5-4.2-28.7-12.4c-7.1-7-13-17-17.2-28.9
					c-2.7-7.6-4.8-15.5-6.9-23.2c-2.2-8.1-4.5-16.5-7.3-24.6c-7-19.7-9.3-36.5-7-52.8c2.4-17.9,11.5-33,26.1-43.5
					C547.2,531,565,525.7,583.7,525.7 M583.7,522c-38.3,0-74.1,21.7-79.6,61.8c-2.6,18.8,0.9,36.7,7.2,54.5
					c5.6,15.7,8.7,32.1,14.3,47.8c7.9,22.5,23.8,43.7,49.3,43.7c2.1,0,4.2-0.1,6.4-0.4c21.8-2.9,41-22.1,50.6-40.8
					c8.2-15.7,14.7-34.6,14.4-52.8c2.7-0.1,5.5-0.6,8.3-1.5c17.6-5.6,32.3-25.2,25.4-44c-6.1-16.7-14.9-32.6-28.6-44.4
					c-16.9-14.6-36-21.4-58.2-23.5C590,522.2,586.8,522,583.7,522L583.7,522z"/>
			</g>
			<g>
				<g>
					<path class="st7" d="M593.6,764.1c-9.5,0-18.1-4.6-23.1-12.3c-3.7-5.8-4.9-13.1-3.3-20.1c1.6-7,5.8-12.9,11.7-16.5
						c74.2-45.2,141.7-85,215.4-114.9c2.5-1,5.1-1.5,7.8-1.5c11,0,22.6,8.5,25.9,19c5,15.9-5.8,28.4-17.9,33.3
						c-69.7,28.3-135.8,68.5-199.9,107.5l-2.5,1.5C603.7,762.7,598.7,764.1,593.6,764.1L593.6,764.1z"/>
					<path d="M802.2,600.6c10.3,0,21.1,8,24.2,17.7c4.7,14.8-5.5,26.5-16.9,31.1c-69.8,28.3-136,68.6-200.1,107.6l-2.5,1.5
						c-4,2.4-8.6,3.7-13.3,3.7c-8.8,0-17-4.4-21.5-11.4c-3.4-5.4-4.6-12.2-3-18.7c1.5-6.6,5.4-12,10.9-15.4
						c74.2-45.1,141.6-84.9,215.1-114.8C797.3,601.1,799.7,600.6,802.2,600.6 M802.2,597c-2.9,0-5.7,0.5-8.5,1.6
						c-75.9,30.8-146,72.7-215.7,115c-13.2,8-17.3,26.3-9,39.1c5.4,8.5,14.9,13.1,24.6,13.1c5.2,0,10.5-1.4,15.2-4.2
						c65.3-39.7,131.7-80.3,202.1-108.9c14.4-5.8,23.9-20,19-35.5C826.4,606.2,814.4,597,802.2,597L802.2,597z"/>
				</g>
			</g>
			<g>
				<g>
					<path class="st7" d="M514.5,766.3c-4.5,0-7.9-2.5-9.3-6.6c-4.1-12.4-9.5-22.9-16.1-31.1c-6.6-8.3-13.7-11.9-22.8-11.9
						c-2.9,0-6.1,0.4-9.9,1.1c-0.8,0.2-1.5,0.2-2.3,0.2l0,0c-5.9,0-9.5-4.9-10-9.6c-0.2-1.8-0.2-7.6,6.8-9
						c7.4-1.5,13.5-2.2,18.7-2.2c13.1,0,20.3,4.7,29,13.3c10.6,10.5,19.1,25.4,25.3,44.3c0.9,2.8,0.6,5.4-0.9,7.5
						C521.4,764.7,518.1,766.3,514.5,766.3z"/>
					<path d="M469.8,698.9c12.6,0,19.2,4.3,27.8,12.8c10.4,10.3,18.8,25,24.8,43.6c0.7,2.3,0.5,4.3-0.7,5.9c-1.5,2-4.3,3.3-7.2,3.3
						c-1.7,0-6-0.5-7.5-5.4c-4.1-12.7-9.6-23.3-16.4-31.7c-7-8.7-14.5-12.6-24.3-12.6c-3,0-6.4,0.4-10.2,1.1
						c-0.6,0.1-1.3,0.2-1.9,0.2c-4.8,0-7.8-4.1-8.2-8c-0.2-1.8,0-6,5.4-7C458.7,699.6,464.7,698.9,469.8,698.9 M469.8,695.3
						c-5.3,0-11.5,0.7-19.1,2.2c-13.6,2.7-9.1,22.2,3.5,22.2c0.8,0,1.7-0.1,2.6-0.3c3.5-0.7,6.6-1.1,9.5-1.1c8.5,0,15,3.2,21.4,11.3
						c7.2,9,12.3,19.8,15.8,30.6c1.8,5.5,6.4,7.9,11,7.9c7,0,14-5.5,11.3-13.9c-5.3-16.2-13.4-32.8-25.7-45
						C491.1,700.3,483.6,695.3,469.8,695.3L469.8,695.3z"/>
				</g>
			</g>
			<path class="st9" d="M515.3,733c10.8,5.5,16.5,12.9,21.6,23.7c4.8,10.2,13.4,28,27.8,25.1c14.6-2.9,28.2-13.5,39.8-22
				c21.1-15.5,41.3-34.8,61.7-52.2c39-33.2,78.4-65.9,116.1-100.6c11.4-10.5,29-11.9,40.8-0.8c10.8,10.2,12.2,29.6,0.8,40.1
				c-43.5,40.1-89.4,77.4-134.1,116.1c-24.8,21.4-49.2,44.9-78.2,60.8c-37,20.4-101.4,35.6-131.1-4.5c-8.2-11-14.8-23.1-21.4-35.1"
				/>
			<path class="st3" d="M629.6,642.2c0.4,6.9,1.5,14.9,7.5,18.2c4,2.2,9,1.5,13.2-0.1c4.5-1.7,8.7-4.3,12.5-7.3
				c8.2-6.4,14.9-14.4,20.7-23.1c4.3-6.4,8.3-20,15.8-23.2c-1.6,0.7-2.9,0.6-4.6,0.4c-2-0.2-3.8-0.1-5.6-0.9
				c-1.6-0.7-3.1-1.9-3.3-3.6c-0.2-1.3,0.5-2.6,1.6-3.5c2.2-1.9,4.3-1.8,6.9-1.4c5.8,0.9,16.7-1,23-7c4.2-4,6-7.7,8.5-15.2
				c-0.4,0.8-4.3,3.8-10,5.7c-5.6,1.8-12.1,1.5-14.9,0c3.7,1.8,7.5-7.3,14.9-9.2c-3.1,0.8-10.1-1-13.4-1.4c-6-0.7-10.9-1.9-15.9-5.2
				c-10.8-7.2-20.8-15.8-29.7-25.3c-4.9-5.3-9.4-10.8-14.9-15.5c-12.9-10.9-30.1-15.7-47-16.7c-14.3-0.8-28.9,0.9-42.2,6.3
				c-19,7.7-35.9,25-46.4,42.3c-8,13.2-11.8,31-6.9,46c0.9,2.8,2.3,5.6,3.9,8.1c1.3,2,3.2,4.9,5.5,5.8c0-3.1-1.1-6.5-1.3-9.7
				c-0.2-3.1-0.1-6.3,0.2-9.4c0.5-5.1,2.1-10.8,6.8-13.1c4.3-2.2,9.6-0.5,13.7,2.1c11.4,7,17.6,19.6,24.5,30.9
				c6.7,11,14.5,21.3,22.2,31.6c4.7,6.3,9.5,12.7,15.6,17.8c6,5.1,13.5,9,21.5,9.3c7.4,0.3,13.1-7,17.7-12.8
				c4.6-5.8,8-12.4,11.8-18.6c4.3-7.1,9.3-13.7,14.9-19.9c5.5-6.1,14-12.8,22.1-14.2c-3.1-3.2-7.8-4.7-11.8-2.9
				c-3.3,1.5-5.6,4.6-7.7,7.7c-4.6,6.8-12,7.9-15.3,15.4c-2.2,4.8-2.2,11.6,2.4,14.2c2.4,1.4,5.3,1.2,8,0.8
				c11.9-1.9,22.9-8.8,29.9-18.5c3.7-5.2,6.9-12.3,11.5-17.2"/>
			<path class="st10" d="M518.5,595.4c2.7,10.5,13.8,18.3,24.7,17.3c11.3-1,20.1-9.6,28.4-17.2c21.2-19.2,46-34.6,72.7-45.2
				c5.3,3.9-2.1,14,2.8,18.4c3.3,3,8.6,0.1,12.1-2.7c9.1-7.1,19-13.1,29.6-17.9c10.9-5,23.7-8.7,34.9-4.3"/>
			<g>
				<path class="st11" d="M555.5,696.2c-1.9-0.3-3.4-1.6-4.6-3.1c-3.5-4.6-5.5-14.5-0.8-18.9c1.4-1.4,3.4-2.2,5.3-2.2
					c6,0.2,8,8,8.5,12.8"/>
				<path d="M555.2,697.9c-1.4-0.2-2.5-0.8-3.5-1.6c-1-0.8-1.8-1.7-2.4-2.6c-1.3-1.9-2.1-3.9-2.7-6c-0.6-2.1-0.8-4.3-0.7-6.5
					c0.1-2.2,0.6-4.5,2-6.4c1.4-2,3.4-3.3,5.8-3.8c1.2-0.2,2.4-0.1,3.6,0.2c1.2,0.3,2.2,1,3.1,1.8c0.9,0.8,1.5,1.7,2,2.7
					c0.5,1,0.9,2,1.3,3c0.7,2,1,4.1,1.2,6.2c0,0.5-0.3,0.9-0.8,1c-0.5,0-0.9-0.3-1-0.8l0,0c-0.2-1.9-0.7-3.9-1.3-5.7
					c-0.7-1.8-1.6-3.5-2.9-4.6c-0.6-0.6-1.4-1-2.2-1.2c-0.8-0.2-1.6-0.2-2.5,0c-1.6,0.4-3.2,1.5-4,2.9c-0.9,1.4-1.3,3.2-1.3,5.1
					c0,1.8,0.3,3.7,0.8,5.5c0.5,1.8,1.3,3.5,2.4,5c1,1.4,2.4,2.5,3.7,2.7c1,0.1,1.6,1,1.5,1.9c-0.1,1-1,1.6-1.9,1.5
					C555.3,697.9,555.3,697.9,555.2,697.9L555.2,697.9z"/>
			</g>
			<path class="st12" d="M539.5,706.6c13.9-4.2,24.8-17,26.4-31.2"/>
			<g>
				<path d="M555.9,679.7c1,1,1.6,2.1,2.2,3.3c0.6,1.2,1,2.4,1.3,3.6c0.3,1.2,0.5,2.5,0.6,3.8c0,1.3-0.1,2.7-0.6,4.1
					c-0.3,0.8-1.2,1.2-2,0.9c-0.8-0.3-1.2-1.2-0.9-2c0,0,0,0,0,0l0,0c0.7-1.7,0.6-4,0.1-6.1c-0.3-1.1-0.6-2.1-1.1-3.1
					c-0.4-1-1-1.9-1.6-2.6l0,0c-0.5-0.6-0.4-1.4,0.1-1.9C554.6,679.1,555.4,679.2,555.9,679.7z"/>
			</g>
			<ellipse transform="matrix(0.9499 -0.3127 0.3127 0.9499 -177.0143 197.8868)" cx="528.5" cy="650.9" rx="4.1" ry="12.5"/>
			<g>
				<path class="st7" d="M782.4,606.6c4-1.7,8.1-3.1,12.3-4c1.2-0.3,2.4-0.5,3.6-0.6c0.3,0,0.6-0.1,0.9,0.1c0.2,0.1,0.3,0.3,0.4,0.5
					c1.1,2.4,1.2,5.2,0.3,7.7c-0.9,2.7-3,4.4-4.3,6.9c-2.8,5.5-6.7,10.6-11.9,14.2c-6.3,4.4-13.9,6.4-21.5,7.6
					c-7.7,1.3-14.2,7.2-21.5,10.4c-2.8,1.2-9,3.2-11.5,0.4c-0.7-0.7-1-1.7-1.3-2.6c-0.3-1-0.6-2-0.3-3c0.3-0.9,1.2-1.6,1.9-2.2
					c4.4-3.3,8.6-6.7,13-9.9c4.7-3.3,8.5-8.6,13.5-11.4C764.8,616,773.4,610.5,782.4,606.6z"/>
			</g>
			<path class="st13" d="M509.7,640.5c0.9,1.1,2,2.3,3.5,2.3c1.6-0.1,2.6-1.6,3.3-3c1.7-3.6,2.5-7.4,3.9-11.1s3.5-7.3,6.9-9.3"/>
			<circle class="st3" cx="528.1" cy="646.5" r="2.8"/>
			<line class="st14" x1="528.6" y1="644.3" x2="532.4" y2="640.9"/>
		</g>
		<g>
			<line class="st15" x1="241" y1="549.2" x2="353.3" y2="549.2"/>
			<line class="st15" x1="272.2" y1="563.6" x2="317.7" y2="563.6"/>
			<line class="st15" x1="329.9" y1="563.6" x2="354.8" y2="563.6"/>
			<line class="st15" x1="242" y1="577" x2="287.4" y2="577"/>
		</g>
		<g>
			<line class="st15" x1="301" y1="576.2" x2="413.3" y2="576.2"/>
			<line class="st15" x1="332.2" y1="590.6" x2="377.7" y2="590.6"/>
			<line class="st15" x1="389.9" y1="590.6" x2="414.8" y2="590.6"/>
			<line class="st15" x1="302" y1="604" x2="347.4" y2="604"/>
		</g>
		<g>
			<line class="st16" x1="264" y1="618.2" x2="376.3" y2="618.2"/>
			<line class="st16" x1="295.2" y1="632.6" x2="340.7" y2="632.6"/>
			<line class="st16" x1="352.9" y1="632.6" x2="377.8" y2="632.6"/>
			<line class="st16" x1="265" y1="646" x2="310.4" y2="646"/>
		</g>
		<path class="st8" d="M543.3,328.8c6.1-7.5,17.1-10.5,26.2-7.3"/>
		<line class="st15" x1="431.5" y1="546.6" x2="456.4" y2="546.6"/>
		<line class="st17" x1="433.5" y1="556.6" x2="451" y2="556.7"/>
		<line class="st15" x1="435.5" y1="565.6" x2="460.4" y2="565.7"/>
		<line class="st18" x1="437.5" y1="574.6" x2="462.4" y2="574.7"/>
		<line class="st18" x1="439.5" y1="583.6" x2="464.4" y2="583.7"/>
		<line class="st15" x1="443.5" y1="601.6" x2="468.4" y2="601.7"/>
		<line class="st15" x1="445.5" y1="610.6" x2="470.4" y2="610.7"/>
		<line class="st16" x1="447.5" y1="619.6" x2="472.4" y2="619.7"/>
		<line class="st16" x1="449.5" y1="628.6" x2="474.4" y2="628.7"/>
		<line class="st19" x1="451.5" y1="637.6" x2="467.7" y2="637.7"/>
		<line class="st19" x1="452.7" y1="646.6" x2="469" y2="646.7"/>
	</g>
</g>
<g id="Layer_6" class="st20">
</g>
<g id="Layer_4" class="st20">
</g>
</svg>
